PathFileType	4	(X/Y/Z)	/tmp/tmpnwx7bfzz/results/MarkerData/JA1Gait35.trc
DataRate	CameraRate	NumFrames	NumMarkers	Units	OrigDataRate	OrigDataStartFrame	OrigNumFrames
250	250	4	53	m	250	120	322
Frame#	Time	C7			LARM			LASI			LELB			LFOREARM			LHEEL			LLEPI			LLMAL			LMFL			LMFS			LP1MT			LP5MT			LPAT			LSH			LTHAD			LTHAP			LTHLD			LTHLP			LTIAD			LTIAP			LTILAT			LTOE			LWR			MAN			P1			P2			P3			RARM			RASI			RELB			RFOREARM			RHEEL			RLEPI			RLMAL			RMFL			RMFS			RP1MT			RP5MT			RPAT			RSH			RTHAD			RTHAP			RTHLD			RTHLP			RTIAD			RTIAP			RTILAT			RTOE			RWR			SACR			T7			x52			x53		
		X1	Y1	Z1	X2	Y2	Z2	X3	Y3	Z3	X4	Y4	Z4	X5	Y5	Z5	X6	Y6	Z6	X7	Y7	Z7	X8	Y8	Z8	X9	Y9	Z9	X10	Y10	Z10	X11	Y11	Z11	X12	Y12	Z12	X13	Y13	Z13	X14	Y14	Z14	X15	Y15	Z15	X16	Y16	Z16	X17	Y17	Z17	X18	Y18	Z18	X19	Y19	Z19	X20	Y20	Z20	X21	Y21	Z21	X22	Y22	Z22	X23	Y23	Z23	X24	Y24	Z24	X25	Y25	Z25	X26	Y26	Z26	X27	Y27	Z27	X28	Y28	Z28	X29	Y29	Z29	X30	Y30	Z30	X31	Y31	Z31	X32	Y32	Z32	X33	Y33	Z33	X34	Y34	Z34	X35	Y35	Z35	X36	Y36	Z36	X37	Y37	Z37	X38	Y38	Z38	X39	Y39	Z39	X40	Y40	Z40	X41	Y41	Z41	X42	Y42	Z42	X43	Y43	Z43	X44	Y44	Z44	X45	Y45	Z45	X46	Y46	Z46	X47	Y47	Z47	X48	Y48	Z48	X49	Y49	Z49	X50	Y50	Z50	X51	Y51	Z51	X52	Y52	Z52	X53	Y53	Z53

121	0.48	-1.38961	1.47418	0.20071	-1.50882	1.43974	-0.0553114	-1.30722	0.995241	0.0911372	-1.65381	1.43822	-0.0699106	-1.74221	1.31893	-0.10332	-1.14568	0.288192	0.169042	-1.00777	0.758594	0.081333	-1.08326	0.319526	0.112095	-1.01575	0.276943	0.0930925	-0.97435	0.299231	0.151157	-0.913432	0.235311	0.17043	-0.956924	0.234391	0.0530003	-0.935987	0.813941	0.147532	-1.34919	1.47419	0.0249034	-1.05571	0.903856	0.122097	-1.1616	0.945593	0.113772	-1.09271	0.803149	0.0477318	-1.20084	0.830017	0.0231045	-1.02122	0.462782	0.15713	-0.989485	0.599595	0.154042	-1.05075	0.540143	0.0852907	-0.896346	0.261924	0.130012	-1.84238	1.23083	-0.117412	-1.25759	1.37495	0.162227	-1.49557	1.03215	0.158338	-1.49605	1.04103	0.263859	-1.53887	0.992043	0.211844	-1.19817	1.33915	0.425607	-1.30804	0.968468	0.304815	-1.10776	1.24073	0.468371	-1.04251	1.34647	0.393662	-2.17133	0.423932	0.213831	-1.7308	0.591312	0.312843	-2.13965	0.366042	0.269504	-2.17726	0.290767	0.270986	-2.1311	0.255456	0.223285	-2.17882	0.188987	0.175882	-2.2206	0.215342	0.292231	-1.67161	0.527966	0.252575	-1.3225	1.47588	0.334874	-1.55057	0.622074	0.272097	-1.47561	0.684651	0.298139	-1.62545	0.693857	0.352586	-1.55742	0.781719	0.377323	-2.01772	0.395341	0.216742	-1.90292	0.454477	0.229118	-1.93969	0.492389	0.303939	nan	nan	nan	-0.988726	1.43747	0.327383	-1.47451	1.05995	0.210449	-1.46389	1.28626	0.228646	-0.958647	1.48837	0.290317	-1.89329	1.18605	-0.124574
122	0.484	-1.35075	1.47652	0.200016	nan	nan	nan	-1.27042	0.996135	0.0918822	-1.61675	1.44043	-0.0633919	-1.7053	1.32147	-0.0993543	-1.07784	0.270633	0.168208	-0.973576	0.752082	0.0805339	-1.0159	0.305484	0.112347	-0.945037	0.26782	0.0949914	-0.908484	0.293814	0.155036	-0.840981	0.236497	0.175802	-0.882695	0.228308	0.057901	-0.902226	0.809437	0.14543	-1.31055	1.4748	0.0240324	-1.02011	0.899038	0.123923	-1.12575	0.940774	0.116759	-1.05747	0.799705	0.047487	-1.16513	0.828383	0.0228237	-0.966242	0.453972	0.156929	-0.94449	0.592772	0.153168	-0.999921	0.527884	0.0834753	-0.82532	0.263369	0.13412	-1.80498	1.23382	-0.115036	-1.2191	1.37573	0.162219	-1.45834	1.03302	0.15724	-1.45897	1.04179	0.263159	-1.50212	0.993287	0.21112	-1.15977	1.34052	0.426675	-1.27065	0.970627	0.305927	-1.07057	1.242	0.468922	-1.00891	1.34921	0.393701	-2.14596	0.451625	0.21291	-1.69137	0.590584	0.31286	-2.11486	0.393401	0.26901	-2.15419	0.319904	0.271899	-2.11022	0.282086	0.223327	-2.16142	0.217241	0.17768	-2.19728	0.246458	0.295883	-1.63413	0.52662	0.252103	-1.28346	1.47847	0.335095	-1.50939	0.621264	0.273677	-1.43555	0.6854	0.298187	-1.58517	0.692201	0.35453	-1.51789	0.780913	0.378995	-1.99161	0.415772	0.215893	-1.87348	0.467136	0.22878	-1.90722	0.506144	0.303565	-2.14547	0.200999	0.221321	-0.958615	1.44169	0.327005	-1.43802	1.06091	0.209725	-1.42573	1.28918	0.229021	-0.930486	1.49341	0.289706	-1.85565	1.18927	-0.123006
123	0.488	-1.3112	1.47919	0.199294	nan	nan	nan	-1.23394	0.997429	0.0926216	-1.57906	1.44088	-0.0581814	-1.66772	1.32204	-0.0957384	-1.01119	0.25446	0.166979	-0.940208	0.744248	0.0797027	-0.949629	0.292243	0.112091	-0.875834	0.25933	0.096947	-0.84408	0.289324	0.157729	-0.771838	0.238497	0.181954	-0.810211	0.222639	0.0634385	-0.869445	0.803254	0.143531	-1.27168	1.47558	0.0231043	-0.984771	0.892388	0.12467	-1.08968	0.934957	0.118898	-1.02387	0.796198	0.0463946	-1.13074	0.827652	0.0214308	-0.912794	0.444828	0.156522	-0.900587	0.584927	0.152049	-0.95025	0.515073	0.0819275	-0.757103	0.265529	0.138599	-1.76667	1.2346	-0.112667	-1.18041	1.37692	0.162343	-1.42118	1.03411	0.156347	-1.42184	1.04242	0.262637	-1.46522	0.994266	0.210535	-1.1221	1.34147	0.427699	-1.23296	0.973073	0.306755	-1.03507	1.24218	0.469803	-0.975922	1.35011	0.393896	-2.11701	0.480764	0.212202	-1.65218	0.589932	0.31376	-2.08781	0.42219	0.268416	-2.12874	0.350455	0.272618	-2.08698	0.31047	0.223828	-2.1421	0.246477	0.17904	-2.17527	0.27757	0.297093	-1.59607	0.523919	0.253954	-1.2437	1.48132	0.33501	-1.46748	0.619016	0.2765	-1.39432	0.684915	0.299011	-1.54421	0.689611	0.355787	-1.47755	0.778558	0.380253	-1.96312	0.436568	0.215586	-1.84172	0.47925	0.229258	-1.87333	0.521238	0.303321	-2.12737	0.229219	0.222662	-0.927985	1.44334	0.326889	-1.40179	1.06215	0.209179	-1.38768	1.29202	0.228862	-0.901177	1.49548	0.289417	-1.81697	1.19016	-0.121271
124	0.492	-1.27144	1.48197	0.198584	nan	nan	nan	-1.19768	0.999094	0.0935659	-1.54108	1.43975	-0.0542674	-1.62936	1.32079	-0.092526	-0.946375	0.239938	0.165196	-0.908472	0.735244	0.0796775	-0.884923	0.280179	0.111631	-0.808881	0.251471	0.0991261	-0.781709	0.28565	0.159744	-0.706547	0.241195	0.18845	-0.739672	0.217851	0.0694729	-0.837183	0.795702	0.141863	-1.23258	1.47641	0.0221353	-0.949589	0.884509	0.124195	-1.05346	0.928504	0.120269	-0.991668	0.792193	0.0448977	-1.09759	0.827097	0.0196856	-0.860924	0.43558	0.155877	-0.857891	0.576281	0.150831	-0.902335	0.502144	0.0812744	-0.694642	0.267417	0.146105	-1.72738	1.23317	-0.110317	-1.14165	1.37838	0.162485	-1.38509	1.0353	0.156032	-1.38453	1.04294	0.262303	-1.42752	0.994352	0.21018	-1.08576	1.34179	0.428276	-1.19518	0.975609	0.307403	-1.00102	1.24131	0.471133	-0.943321	1.34922	0.394432	-2.08325	0.511173	0.212107	-1.61259	0.589509	0.315313	-2.05771	0.45123	0.268234	-2.10175	0.381647	0.273051	-2.06207	0.339505	0.224836	-2.12076	0.277676	0.179639	-2.15373	0.310223	0.296603	-1.55762	0.52024	0.257878	-1.20327	1.48424	0.334414	-1.42547	0.616023	0.27996	-1.35238	0.683834	0.300813	-1.50261	0.686672	0.356886	-1.43659	0.775828	0.381101	-1.9319	0.457043	0.21623	-1.80783	0.490486	0.230918	-1.83767	0.536493	0.303468	-2.10817	0.259485	0.223519	-0.896675	1.44257	0.326965	-1.36595	1.06353	0.209035	-1.34979	1.29469	0.228272	-0.870589	1.49478	0.289235	-1.77719	1.18863	-0.119359
